<svg width="154" height="34" viewBox="0 0 154 34" fill="none" xmlns="http://www.w3.org/2000/svg">
<path d="M73.5289 20.5308L73.5342 18.7043C73.5342 17.1525 73.5289 16.1629 73.5181 15.7355L73.4965 14.8842C73.4858 14.5537 73.475 14.358 73.4642 14.2969L74.3909 14.2484C74.3873 14.2915 74.3837 14.349 74.3802 14.4208C74.3802 14.4891 74.3802 14.5753 74.3802 14.6795V15.0836L74.7896 14.7926C75.332 14.4119 75.8493 14.2215 76.3414 14.2215C76.8371 14.2215 77.2304 14.2987 77.5213 14.4532C77.8159 14.604 78.035 14.8411 78.1786 15.1644C78.2253 15.1356 78.3618 15.0423 78.5881 14.8842C78.818 14.7226 79.0138 14.6004 79.1754 14.5178C79.5562 14.3203 79.9261 14.2215 80.2853 14.2215C80.9678 14.2215 81.4725 14.3795 81.7993 14.6956C82.1262 15.0081 82.2986 15.5056 82.3166 16.1881V20.5308H81.4006V16.5168C81.4006 15.9636 81.3198 15.5775 81.1582 15.3583C80.9965 15.1428 80.7182 15.0351 80.323 15.0351C79.971 15.0351 79.6801 15.08 79.4502 15.1698C79.2239 15.2596 79.0317 15.3494 78.8737 15.4392L78.3564 15.7463L78.3403 15.7571C78.3654 15.8756 78.378 16.0193 78.378 16.1881V20.5308H77.4674V16.5168C77.4674 15.9672 77.3866 15.581 77.225 15.3583C77.0705 15.1428 76.7939 15.0351 76.3952 15.0351C76.0432 15.0351 75.7523 15.08 75.5224 15.1698C75.2961 15.2596 75.1039 15.3494 74.9459 15.4392L74.4286 15.7463L74.4394 16.2366C74.4466 16.5096 74.4502 16.7861 74.4502 17.0663V20.5308H73.5289ZM92.2618 20.3422C91.7338 20.5397 91.2058 20.6385 90.6778 20.6385C89.6002 20.6385 88.8225 20.3117 88.3448 19.6579C87.9533 19.1299 87.7575 18.3666 87.7575 17.368C87.7575 16.3695 87.9802 15.5972 88.4256 15.0512C88.8746 14.5053 89.5337 14.2287 90.403 14.2215C91.2148 14.2215 91.8254 14.525 92.2349 15.1321C92.6085 15.6816 92.7952 16.4575 92.7952 17.4596V17.6536H88.7058C88.7669 18.7994 89.1584 19.4927 89.8804 19.7333C90.1031 19.8052 90.394 19.8411 90.7532 19.8411C91.116 19.8411 91.5596 19.7423 92.084 19.5448L92.2618 20.3422ZM91.8254 16.9262C91.7823 16.3048 91.671 15.8415 91.4914 15.5361C91.1789 15.0225 90.6365 14.8698 89.8642 15.0782C89.4368 15.1895 89.1171 15.4697 88.9052 15.9187C88.7794 16.1845 88.713 16.5203 88.7058 16.9262H91.8254ZM102.908 20.5793C102.789 20.6188 102.642 20.6385 102.466 20.6385C102.29 20.6385 102.144 20.6188 102.029 20.5793C101.918 20.5397 101.821 20.4841 101.738 20.4122C101.577 20.2757 101.473 20.0943 101.426 19.868C101.232 20.1662 100.883 20.3925 100.381 20.5469C99.928 20.687 99.4718 20.678 99.0121 20.52C98.5164 20.3548 98.159 20.0512 97.9399 19.6094C97.8285 19.3867 97.7728 19.1425 97.7728 18.8767C97.7728 18.6073 97.8249 18.381 97.9291 18.1978C98.0333 18.011 98.1715 17.8583 98.344 17.7398C98.6672 17.5135 99.1001 17.377 99.6424 17.3303C100.077 17.2872 100.639 17.2567 101.329 17.2387V16.2689C101.329 15.8127 101.302 15.5272 101.248 15.4122C101.198 15.2973 101.137 15.2111 101.065 15.1536C100.943 15.0602 100.695 15.0135 100.321 15.0135L100.117 15.0189C99.5562 15.0476 99.0121 15.1392 98.484 15.2937L98.3332 14.4963C98.9618 14.3131 99.5796 14.2215 100.187 14.2215C101.052 14.2215 101.62 14.3849 101.889 14.7118C102.051 14.9094 102.148 15.1518 102.18 15.4392C102.212 15.7265 102.23 15.9923 102.234 16.2366V19.3131C102.234 19.6184 102.261 19.8016 102.315 19.8627C102.372 19.9201 102.437 19.9489 102.509 19.9489C102.584 19.9489 102.697 19.9363 102.848 19.9111L102.908 20.5793ZM101.329 18.5588C101.329 18.3037 101.336 18.0685 101.35 17.853C100.09 17.853 99.2958 17.9733 98.969 18.214C98.7858 18.3433 98.6942 18.5444 98.6942 18.8174C98.6942 19.1299 98.8001 19.3849 99.0121 19.5825C99.2168 19.7729 99.4844 19.868 99.8149 19.868C100.451 19.886 100.955 19.6867 101.329 19.27V18.5588ZM109.259 18.8497C109.237 19.2412 109.29 19.5017 109.415 19.631C109.541 19.7567 109.721 19.8196 109.954 19.8196C110.191 19.8196 110.532 19.7585 110.978 19.6364L111.15 20.423C110.676 20.5523 110.297 20.6206 110.013 20.6277C109.733 20.6385 109.493 20.6188 109.291 20.5685C109.09 20.5218 108.918 20.4338 108.774 20.3045C108.465 20.0279 108.318 19.5627 108.332 18.909L108.343 11.8023L109.27 11.7269L109.259 18.8497ZM123.126 20.5308L123.131 18.7043C123.131 17.1525 123.126 16.1629 123.115 15.7355L123.094 14.8842C123.083 14.5537 123.072 14.358 123.061 14.2969L123.988 14.2484C123.984 14.2915 123.981 14.349 123.977 14.4208C123.977 14.4891 123.977 14.5753 123.977 14.6795V15.0836L124.387 14.7926C124.929 14.4119 125.446 14.2215 125.938 14.2215C126.434 14.2215 126.827 14.2987 127.118 14.4532C127.413 14.604 127.632 14.8411 127.776 15.1644C127.822 15.1356 127.959 15.0423 128.185 14.8842C128.415 14.7226 128.611 14.6004 128.772 14.5178C129.153 14.3203 129.523 14.2215 129.882 14.2215C130.565 14.2215 131.069 14.3795 131.396 14.6956C131.723 15.0081 131.896 15.5056 131.914 16.1881V20.5308H130.998V16.5168C130.998 15.9636 130.917 15.5775 130.755 15.3583C130.594 15.1428 130.315 15.0351 129.92 15.0351C129.568 15.0351 129.277 15.08 129.047 15.1698C128.821 15.2596 128.629 15.3494 128.471 15.4392L127.953 15.7463L127.937 15.7571C127.962 15.8756 127.975 16.0193 127.975 16.1881V20.5308H127.064V16.5168C127.064 15.9672 126.984 15.581 126.822 15.3583C126.668 15.1428 126.391 15.0351 125.992 15.0351C125.64 15.0351 125.349 15.08 125.119 15.1698C124.893 15.2596 124.701 15.3494 124.543 15.4392L124.026 15.7463L124.036 16.2366C124.044 16.5096 124.047 16.7861 124.047 17.0663V20.5308H123.126ZM142.419 20.5793C142.301 20.6188 142.153 20.6385 141.977 20.6385C141.801 20.6385 141.656 20.6188 141.541 20.5793C141.43 20.5397 141.333 20.4841 141.25 20.4122C141.088 20.2757 140.984 20.0943 140.938 19.868C140.744 20.1662 140.395 20.3925 139.892 20.5469C139.44 20.687 138.983 20.678 138.524 20.52C138.028 20.3548 137.671 20.0512 137.452 19.6094C137.34 19.3867 137.284 19.1425 137.284 18.8767C137.284 18.6073 137.337 18.381 137.441 18.1978C137.545 18.011 137.683 17.8583 137.856 17.7398C138.179 17.5135 138.612 17.377 139.154 17.3303C139.589 17.2872 140.151 17.2567 140.841 17.2387V16.2689C140.841 15.8127 140.814 15.5272 140.76 15.4122C140.709 15.2973 140.648 15.2111 140.577 15.1536C140.454 15.0602 140.207 15.0135 139.833 15.0135L139.628 15.0189C139.068 15.0476 138.524 15.1392 137.996 15.2937L137.845 14.4963C138.473 14.3131 139.091 14.2215 139.698 14.2215C140.564 14.2215 141.131 14.3849 141.401 14.7118C141.563 14.9094 141.659 15.1518 141.692 15.4392C141.724 15.7265 141.742 15.9923 141.746 16.2366V19.3131C141.746 19.6184 141.773 19.8016 141.827 19.8627C141.884 19.9201 141.949 19.9489 142.02 19.9489C142.096 19.9489 142.209 19.9363 142.36 19.9111L142.419 20.5793ZM140.841 18.5588C140.841 18.3037 140.848 18.0685 140.862 17.853C139.601 17.853 138.807 17.9733 138.481 18.214C138.297 18.3433 138.206 18.5444 138.206 18.8174C138.206 19.1299 138.312 19.3849 138.524 19.5825C138.728 19.7729 138.996 19.868 139.327 19.868C139.962 19.886 140.467 19.6867 140.841 19.27V18.5588ZM150.333 20.6439C149.855 20.6439 149.336 20.5182 148.776 20.2668V23.1116H147.849C147.849 17.8997 147.833 14.9614 147.801 14.2969L148.695 14.2215V15.1805C149.299 14.5591 149.952 14.2395 150.656 14.2215C151.799 14.1963 152.546 14.7477 152.898 15.8756C153.038 16.321 153.108 16.7969 153.108 17.3034C153.108 17.8063 153.054 18.2588 152.946 18.6611C152.842 19.0599 152.682 19.4065 152.467 19.701C152 20.3296 151.325 20.6439 150.441 20.6439C150.405 20.6439 150.369 20.6439 150.333 20.6439ZM148.744 15.9295L148.776 17.1902V19.4855C149.229 19.6687 149.552 19.7747 149.746 19.8034C150.36 19.8932 150.809 19.8698 151.093 19.7333C151.377 19.5933 151.594 19.4101 151.745 19.1838C152.025 18.7635 152.161 18.1565 152.154 17.3627C152.144 16.2563 151.885 15.5344 151.378 15.1967C151.195 15.0746 150.983 15.0153 150.743 15.0189C150.502 15.0225 150.295 15.0476 150.123 15.0943C149.951 15.141 149.793 15.1967 149.649 15.2614C149.509 15.326 149.383 15.3979 149.272 15.4769C149.164 15.5523 149.071 15.6224 148.992 15.687C148.916 15.7517 148.857 15.8073 148.814 15.854C148.771 15.9007 148.747 15.9259 148.744 15.9295Z" fill="black"/>
<circle cx="9.61579" cy="5.82282" r="5.32282" fill="#CFBAE1"/>
<path d="M1 30.1943L9.66807 2.82695L13.0154 8.25952L17.4054 8.25952" stroke="black" stroke-width="0.658493" stroke-linecap="round" stroke-linejoin="round"/>
<path d="M33.0693 30.1943L24.4013 2.82695L21.0539 8.25952L16.664 8.25952" stroke="black" stroke-width="0.658493" stroke-linecap="round" stroke-linejoin="round"/>
<path d="M33.0996 30.1397L35.316 20.0977L39.6297 30.1397H41.1113" stroke="black" stroke-width="0.658493" stroke-linecap="round" stroke-linejoin="round"/>
<path d="M49.0684 30.1397L46.8519 20.0977L42.5383 30.1397H41.0567" stroke="black" stroke-width="0.658493" stroke-linecap="round" stroke-linejoin="round"/>
<circle cx="56.4762" cy="27.9444" r="2.1401" stroke="black" stroke-width="0.658493"/>
<circle cx="58.287" cy="14.3906" r="3.95096" stroke="black" stroke-width="0.658493"/>
</svg>
