<svg width="114" height="87" viewBox="0 0 114 87" fill="none" xmlns="http://www.w3.org/2000/svg">
<circle cx="16.9896" cy="10.6983" r="9.75132" fill="#CFBAE1"/>
<path d="M1.20605 55.3467L17.0858 5.21005L23.2181 15.1624L31.2604 15.1624" stroke="black" stroke-width="1.20635" stroke-linecap="round" stroke-linejoin="round"/>
<path d="M59.9561 55.3467L44.0763 5.21005L37.944 15.1624L29.9017 15.1624" stroke="black" stroke-width="1.20635" stroke-linecap="round" stroke-linejoin="round"/>
<path d="M60.0117 55.2459L64.0722 36.8491L71.9747 55.2459H74.689" stroke="black" stroke-width="1.20635" stroke-linecap="round" stroke-linejoin="round"/>
<path d="M89.2656 55.2459L85.2052 36.8491L77.3027 55.2459H74.5884" stroke="black" stroke-width="1.20635" stroke-linecap="round" stroke-linejoin="round"/>
<circle cx="102.837" cy="51.225" r="3.92063" stroke="black" stroke-width="1.20635"/>
<circle cx="106.155" cy="26.3942" r="7.2381" stroke="black" stroke-width="1.20635"/>
<path d="M1.43588 83.3069L1.44285 80.944C1.44285 78.9365 1.43588 77.6563 1.42194 77.1033L1.39406 76.002C1.38012 75.5745 1.36617 75.3213 1.35223 75.2423L2.55112 75.1795C2.54648 75.2353 2.54183 75.3097 2.53718 75.4026C2.53718 75.4909 2.53718 75.6024 2.53718 75.7372V76.2599L3.06692 75.8835C3.7686 75.391 4.43774 75.1447 5.07436 75.1447C5.71563 75.1447 6.22446 75.2446 6.60085 75.4444C6.9819 75.6396 7.26535 75.9463 7.45123 76.3645C7.51164 76.3273 7.68822 76.2065 7.98097 76.002C8.27837 75.7929 8.53162 75.6349 8.74073 75.5281C9.2333 75.2725 9.71192 75.1447 10.1766 75.1447C11.0595 75.1447 11.7124 75.3491 12.1353 75.7581C12.5581 76.1623 12.7812 76.8059 12.8044 77.6888V83.3069H11.6195V78.114C11.6195 77.3984 11.5149 76.8989 11.3058 76.6154C11.0967 76.3366 10.7366 76.1972 10.2254 76.1972C9.77001 76.1972 9.39361 76.2553 9.09621 76.3715C8.80346 76.4876 8.55486 76.6038 8.35039 76.72L7.68125 77.1173L7.66034 77.1312C7.69287 77.2846 7.70913 77.4704 7.70913 77.6888V83.3069H6.53115V78.114C6.53115 77.4031 6.4266 76.9035 6.21749 76.6154C6.01767 76.3366 5.65987 76.1972 5.14407 76.1972C4.68867 76.1972 4.31228 76.2553 4.01488 76.3715C3.72213 76.4876 3.47352 76.6038 3.26906 76.72L2.59991 77.1173L2.61385 77.7516C2.62315 78.1047 2.6278 78.4625 2.6278 78.825V83.3069H1.43588ZM25.6704 83.0629C24.9873 83.3185 24.3042 83.4463 23.6212 83.4463C22.2271 83.4463 21.2211 83.0234 20.603 82.1777C20.0965 81.4946 19.8433 80.5072 19.8433 79.2153C19.8433 77.9235 20.1314 76.9244 20.7076 76.2181C21.2884 75.5118 22.1411 75.154 23.2657 75.1447C24.3159 75.1447 25.1058 75.5373 25.6356 76.3227C26.1188 77.0336 26.3605 78.0374 26.3605 79.3338V79.5848H21.07C21.149 81.0671 21.6555 81.9639 22.5896 82.2753C22.8777 82.3682 23.2541 82.4147 23.7187 82.4147C24.1881 82.4147 24.762 82.2869 25.4404 82.0313L25.6704 83.0629ZM25.1058 78.6438C25.0501 77.8399 24.906 77.2404 24.6737 76.8454C24.2694 76.1809 23.5677 75.9834 22.5686 76.253C22.0157 76.397 21.6021 76.7595 21.3279 77.3403C21.1653 77.6842 21.0793 78.1187 21.07 78.6438H25.1058ZM39.4426 83.3696C39.2892 83.4207 39.0987 83.4463 38.871 83.4463C38.6433 83.4463 38.4551 83.4207 38.3064 83.3696C38.1624 83.3185 38.0369 83.2465 37.93 83.1535C37.7209 82.977 37.5862 82.7423 37.5258 82.4495C37.2748 82.8352 36.8241 83.128 36.1735 83.3278C35.588 83.509 34.9979 83.4974 34.4031 83.2929C33.7618 83.0792 33.2994 82.6865 33.016 82.115C32.8719 81.8269 32.7999 81.5109 32.7999 81.167C32.7999 80.8185 32.8673 80.5257 33.002 80.2888C33.1368 80.0471 33.3157 79.8496 33.5388 79.6963C33.957 79.4035 34.5169 79.2269 35.2186 79.1665C35.7809 79.1108 36.5081 79.0713 37.4003 79.048V77.7934C37.4003 77.2032 37.3654 76.8338 37.2957 76.6851C37.2307 76.5364 37.1517 76.4249 37.0587 76.3505C36.9008 76.2297 36.5801 76.1693 36.0968 76.1693L35.832 76.1763C35.1071 76.2135 34.4031 76.332 33.72 76.5318L33.5248 75.5002C34.338 75.2632 35.1373 75.1447 35.9226 75.1447C37.0425 75.1447 37.7767 75.3561 38.1252 75.779C38.3343 76.0346 38.4598 76.3482 38.5016 76.72C38.5434 77.0917 38.5666 77.4356 38.5713 77.7516V81.7316C38.5713 82.1266 38.6061 82.3636 38.6759 82.4426C38.7502 82.5169 38.8338 82.5541 38.9268 82.5541C39.0244 82.5541 39.1707 82.5378 39.3659 82.5053L39.4426 83.3696ZM37.4003 80.7558C37.4003 80.4258 37.4096 80.1215 37.4282 79.8427C35.7971 79.8427 34.7702 79.9983 34.3473 80.3097C34.1103 80.477 33.9918 80.7372 33.9918 81.0903C33.9918 81.4946 34.1289 81.8245 34.4031 82.0801C34.6679 82.3264 35.0141 82.4495 35.4416 82.4495C36.2641 82.4728 36.917 82.2149 37.4003 81.6758V80.7558ZM47.6594 81.1322C47.6315 81.6387 47.6989 81.9756 47.8616 82.1428C48.0242 82.3055 48.2565 82.3868 48.5586 82.3868C48.8653 82.3868 49.3067 82.3078 49.8829 82.1498L50.106 83.1675C49.4926 83.3348 49.0024 83.4231 48.6353 83.4323C48.2728 83.4463 47.9615 83.4207 47.7012 83.3557C47.441 83.2953 47.218 83.1814 47.0321 83.0141C46.6325 82.6563 46.4419 82.0546 46.4605 81.2088L46.4745 72.015L47.6734 71.9174L47.6594 81.1322ZM65.5987 83.3069L65.6057 80.944C65.6057 78.9365 65.5987 77.6563 65.5848 77.1033L65.5569 76.002C65.5429 75.5745 65.529 75.3213 65.5151 75.2423L66.7139 75.1795C66.7093 75.2353 66.7046 75.3097 66.7 75.4026C66.7 75.4909 66.7 75.6024 66.7 75.7372V76.2599L67.2297 75.8835C67.9314 75.391 68.6006 75.1447 69.2372 75.1447C69.8784 75.1447 70.3873 75.2446 70.7637 75.4444C71.1447 75.6396 71.4282 75.9463 71.614 76.3645C71.6745 76.3273 71.851 76.2065 72.1438 76.002C72.4412 75.7929 72.6944 75.6349 72.9035 75.5281C73.3961 75.2725 73.8747 75.1447 74.3394 75.1447C75.2223 75.1447 75.8752 75.3491 76.2981 75.7581C76.7209 76.1623 76.944 76.8059 76.9672 77.6888V83.3069H75.7823V78.114C75.7823 77.3984 75.6777 76.8989 75.4686 76.6154C75.2595 76.3366 74.8994 76.1972 74.3882 76.1972C73.9328 76.1972 73.5564 76.2553 73.259 76.3715C72.9663 76.4876 72.7177 76.6038 72.5132 76.72L71.8441 77.1173L71.8232 77.1312C71.8557 77.2846 71.8719 77.4704 71.8719 77.6888V83.3069H70.694V78.114C70.694 77.4031 70.5894 76.9035 70.3803 76.6154C70.1805 76.3366 69.8227 76.1972 69.3069 76.1972C68.8515 76.1972 68.4751 76.2553 68.1777 76.3715C67.8849 76.4876 67.6363 76.6038 67.4319 76.72L66.7627 77.1173L66.7767 77.7516C66.786 78.1047 66.7906 78.4625 66.7906 78.825V83.3069H65.5987ZM90.5581 83.3696C90.4048 83.4207 90.2143 83.4463 89.9866 83.4463C89.7589 83.4463 89.5707 83.4207 89.422 83.3696C89.2779 83.3185 89.1525 83.2465 89.0456 83.1535C88.8365 82.977 88.7017 82.7423 88.6413 82.4495C88.3904 82.8352 87.9396 83.128 87.2891 83.3278C86.7036 83.509 86.1134 83.4974 85.5186 83.2929C84.8774 83.0792 84.415 82.6865 84.1316 82.115C83.9875 81.8269 83.9155 81.5109 83.9155 81.167C83.9155 80.8185 83.9829 80.5257 84.1176 80.2888C84.2524 80.0471 84.4313 79.8496 84.6543 79.6963C85.0725 79.4035 85.6325 79.2269 86.3342 79.1665C86.8964 79.1108 87.6237 79.0713 88.5159 79.048V77.7934C88.5159 77.2032 88.481 76.8338 88.4113 76.6851C88.3462 76.5364 88.2672 76.4249 88.1743 76.3505C88.0163 76.2297 87.6957 76.1693 87.2124 76.1693L86.9475 76.1763C86.2226 76.2135 85.5186 76.332 84.8355 76.5318L84.6404 75.5002C85.4536 75.2632 86.2528 75.1447 87.0382 75.1447C88.158 75.1447 88.8923 75.3561 89.2408 75.779C89.4499 76.0346 89.5753 76.3482 89.6172 76.72C89.659 77.0917 89.6822 77.4356 89.6869 77.7516V81.7316C89.6869 82.1266 89.7217 82.3636 89.7914 82.4426C89.8658 82.5169 89.9494 82.5541 90.0423 82.5541C90.1399 82.5541 90.2863 82.5378 90.4815 82.5053L90.5581 83.3696ZM88.5159 80.7558C88.5159 80.4258 88.5251 80.1215 88.5437 79.8427C86.9127 79.8427 85.8857 79.9983 85.4629 80.3097C85.2259 80.477 85.1074 80.7372 85.1074 81.0903C85.1074 81.4946 85.2445 81.8245 85.5186 82.0801C85.7835 82.3264 86.1297 82.4495 86.5572 82.4495C87.3797 82.4728 88.0326 82.2149 88.5159 81.6758V80.7558ZM100.796 83.4533C100.178 83.4533 99.5069 83.2906 98.782 82.9653V86.6456H97.5831C97.5831 79.9031 97.5622 76.1019 97.5203 75.2423L98.6774 75.1447V76.3854C99.4581 75.5815 100.304 75.1679 101.215 75.1447C102.692 75.1122 103.659 75.8255 104.114 77.2846C104.295 77.8608 104.386 78.4765 104.386 79.1317C104.386 79.7822 104.316 80.3678 104.177 80.8882C104.042 81.404 103.835 81.8524 103.557 82.2335C102.953 83.0467 102.079 83.4533 100.936 83.4533C100.889 83.4533 100.843 83.4533 100.796 83.4533ZM98.7401 77.3543L98.782 78.9853V81.9547C99.3675 82.1916 99.7857 82.3287 100.037 82.3659C100.831 82.4821 101.412 82.4519 101.779 82.2753C102.146 82.0941 102.427 81.8571 102.623 81.5643C102.985 81.0206 103.162 80.2353 103.152 79.2084C103.138 77.7771 102.804 76.8431 102.149 76.4063C101.912 76.2483 101.637 76.1716 101.326 76.1763C101.015 76.1809 100.748 76.2135 100.525 76.2739C100.301 76.3343 100.097 76.4063 99.9111 76.49C99.7299 76.5736 99.5673 76.6665 99.4232 76.7688C99.2838 76.8663 99.163 76.957 99.0608 77.0406C98.9632 77.1242 98.8865 77.1963 98.8308 77.2567C98.775 77.3171 98.7448 77.3496 98.7401 77.3543Z" fill="black"/>
</svg>
